<?xml version="1.0" standalone="no"?>
<!DOCTYPE svg PUBLIC "-//W3C//DTD SVG 20010904//EN"
 "http://www.w3.org/TR/2001/REC-SVG-20010904/DTD/svg10.dtd">
<svg version="1.0" xmlns="http://www.w3.org/2000/svg"
 width="350.000000pt" height="350.000000pt" viewBox="0 0 350.000000 350.000000"
 preserveAspectRatio="xMidYMid meet">

<g transform="translate(0.000000,350.000000) scale(0.100000,-0.100000)"
fill="#000000" stroke="none">
<path d="M1104 2360 l-691 -690 691 -690 691 -690 690 690 690 690 -690 690
-690 690 -691 -690z m2026 -691 c0 -7 40 34 -738 -742 l-600 -598 -664 666
c-364 367 -664 670 -666 675 -2 4 298 308 665 674 l668 665 667 -667 c367
-367 668 -670 668 -673z"/>
<path d="M1156 2308 l-638 -633 635 -640 636 -640 278 277 c153 153 441 438
640 635 l363 358 -633 638 c-347 350 -634 637 -637 637 -3 0 -293 -285 -644
-632z m1248 -45 c325 -324 592 -591 594 -594 2 -4 -4 -13 -12 -20 -7 -8 -230
-229 -494 -492 -345 -344 -485 -478 -499 -475 -17 3 -18 31 -21 682 -2 636 -1
681 15 699 17 18 28 19 153 15 211 -8 292 -50 320 -168 30 -124 -40 -250 -156
-279 -23 -6 -97 -11 -163 -11 l-121 0 0 -432 0 -433 103 102 c56 55 263 260
461 455 l358 353 -553 550 -554 549 -3 -971 c-2 -859 -4 -972 -17 -983 -10 -8
-19 -10 -25 -4 -12 12 -18 2013 -7 2032 5 6 13 12 19 12 6 0 277 -264 602
-587z m-1190 -9 c3 -9 6 -144 6 -300 l0 -284 170 0 170 0 2 178 c3 169 4 177
23 177 20 0 20 -8 23 -499 1 -275 -2 -504 -6 -508 -5 -5 -16 -6 -25 -2 -15 6
-17 36 -17 310 l0 304 -170 0 -170 0 0 -124 c0 -98 -3 -126 -15 -136 -12 -10
-18 -10 -30 0 -13 10 -15 73 -17 413 l-3 401 -258 -254 c-142 -139 -256 -257
-255 -261 2 -5 210 -215 462 -468 444 -445 485 -491 434 -491 -7 0 -227 217
-488 482 l-475 481 300 298 c165 164 307 299 316 299 9 0 20 -7 23 -16z m651
-1569 c55 -54 16 -145 -61 -145 -54 0 -84 31 -84 86 0 56 28 84 82 84 28 0 46
-7 63 -25z"/>
<path d="M2020 1844 l0 -187 128 5 c133 6 184 20 224 64 26 30 41 102 33 163
-13 106 -86 141 -293 141 l-92 0 0 -186z"/>
</g>
</svg>
